<?xml version="1.0" encoding="utf-8"?>
<!-- Generator: Adobe Illustrator 16.0.0, SVG Export Plug-In . SVG Version: 6.00 Build 0)  -->
<!DOCTYPE svg PUBLIC "-//W3C//DTD SVG 1.1//EN" "http://www.w3.org/Graphics/SVG/1.1/DTD/svg11.dtd">
<svg version="1.1" id="Capa_1" xmlns="http://www.w3.org/2000/svg" xmlns:xlink="http://www.w3.org/1999/xlink" x="0px" y="0px"
	 width="1200px" height="1200px" viewBox="0 0 1200 1200" enable-background="new 0 0 1200 1200" xml:space="preserve">
<g>
	<path fill="#FFFFFF" d="M1152.906,418.938L516.815,115.07c-7.392-3.574-16.328-0.485-19.812,6.877L358.564,411.699h75.43
		L535.598,198.8l551.483,263.427l-172.46,360.941l-97.088-46.349v190.815l59.707,28.505c7.453,3.605,16.269,0.364,19.812-7.027
		l262.883-550.453C1163.508,431.329,1160.359,422.453,1152.906,418.938z"/>
	<path fill="#FFFFFF" d="M758.461,446.687H53.484c-8.148,0-14.904,6.635-14.904,14.783v610.07c0,8.179,6.755,14.873,14.904,14.873
		h704.947c8.209,0,14.904-6.694,14.904-14.873V461.47C773.366,453.322,766.671,446.687,758.461,446.687z M717.749,914.229h-44.683
		c-26.021-66.735-58.041-160.159-106.662-147.678c-56.981,14.541-85.426,147.678-85.426,147.678S451.807,764.005,371.41,683.577
		c-80.428-80.427-158.342,230.651-158.342,230.651H106.618V514.149h611.131V914.229z"/>
	<circle fill="#FFFFFF" cx="205.252" cy="600" r="49.862"/>
	<path fill="#FFFFFF" d="M539.776,635.2c11.178,0,21.661-1.181,30.991-3.029c10.875,4.604,24.143,7.422,38.411,7.422
		c36.806,0,66.554-17.964,66.554-40.138c0-22.113-29.748-40.077-66.554-40.077c-13.783,0-26.567,2.514-37.169,6.906
		c-4.393-4.271-10.239-6.906-16.752-6.906h-9.633c-12.36,0-22.084,9.36-23.478,21.265c-29.749,3.121-51.893,13.905-51.893,26.748
		C470.254,622.75,501.366,635.2,539.776,635.2z"/>
</g>
</svg>
