<?xml version="1.0" encoding="utf-8"?>
<!-- Generator: Adobe Illustrator 16.0.0, SVG Export Plug-In . SVG Version: 6.00 Build 0)  -->
<!DOCTYPE svg PUBLIC "-//W3C//DTD SVG 1.1//EN" "http://www.w3.org/Graphics/SVG/1.1/DTD/svg11.dtd">
<svg version="1.1" xmlns="http://www.w3.org/2000/svg" xmlns:xlink="http://www.w3.org/1999/xlink" x="0px" y="0px" width="50px"
	 height="50px" viewBox="0 0 50 50" enable-background="new 0 0 50 50" xml:space="preserve">
<g id="Layer_1">
	<path fill-rule="evenodd" clip-rule="evenodd" fill="#EE2A27" d="M27.381,33.49c0-5.945-0.019-11.9,0.045-17.854
		c0.005-0.368,0.615-0.958,1.035-1.057c4.936-1.168,10.115,1.841,11.43,6.72c0.378,1.401,0.784,1.882,2.347,1.56
		c2.587-0.535,5.407,1.967,5.786,4.853c0.343,2.599-1.898,5.683-4.467,5.741C38.248,33.576,32.935,33.49,27.381,33.49z"/>
	<path fill-rule="evenodd" clip-rule="evenodd" fill="#EE2A27" d="M26.066,15.618c0,6.009,0,11.931,0,18.003
		c-0.466,0.033-0.918,0.066-1.48,0.106c-0.037-0.537-0.088-0.961-0.09-1.385c-0.015-4.924,0.006-9.847-0.053-14.77
		C24.429,16.416,24.94,15.902,26.066,15.618z"/>
	<path fill-rule="evenodd" clip-rule="evenodd" fill="#EE2A27" d="M18.671,18.201c0.958-0.201,1.701-0.284,1.704,0.85
		c0.011,4.826,0.005,9.651,0.005,14.558c-0.927,0.079-1.712,0.449-1.71-0.814C18.674,27.965,18.671,23.137,18.671,18.201z"/>
	<path fill-rule="evenodd" clip-rule="evenodd" fill="#EE2A27" d="M17.372,18.394c0,5.059,0,10.055,0,15.099
		c-1.032,0.418-1.617,0.317-1.617-0.931c-0.001-4.335-0.007-8.67-0.058-13.005C15.683,18.447,16.214,18.209,17.372,18.394z"/>
	<path fill-rule="evenodd" clip-rule="evenodd" fill="#EE2A27" d="M21.653,18.996c0.418-0.215,0.908-0.468,1.521-0.784
		c0,5.173,0,10.252,0,15.428c-0.502,0-0.957,0-1.521,0C21.653,28.757,21.653,23.908,21.653,18.996z"/>
	<path fill-rule="evenodd" clip-rule="evenodd" fill="#EE2A27" d="M14.477,19.361c0,4.606,0.016,9.037-0.036,13.468
		c-0.004,0.298-0.523,0.588-0.803,0.881c-0.24-0.343-0.677-0.677-0.689-1.027c-0.095-2.632-0.11-5.266-0.144-7.898
		c-0.013-0.976,0.061-1.957-0.025-2.925C12.673,20.67,13.141,19.915,14.477,19.361z"/>
	<path fill-rule="evenodd" clip-rule="evenodd" fill="#EE2A27" d="M11.636,22.694c0,3.863,0,7.355,0,10.948c-0.52,0-0.97,0-1.721,0
		c0-3.03-0.083-5.995,0.068-8.947C10.014,24.089,10.917,23.529,11.636,22.694z"/>
	<path fill-rule="evenodd" clip-rule="evenodd" fill="#EE2A27" d="M7.4,23.493c1.098-0.395,1.416-0.061,1.406,0.869
		c-0.032,2.771,0.011,5.545-0.04,8.315c-0.006,0.354-0.392,0.701-0.603,1.052c-0.254-0.335-0.724-0.666-0.73-1.006
		C7.376,29.667,7.4,26.608,7.4,23.493z"/>
	<path fill-rule="evenodd" clip-rule="evenodd" fill="#EE2A27" d="M6.037,33.202c-1.402-0.88-1.399-8.662,0-9.43
		C6.037,26.918,6.037,29.974,6.037,33.202z"/>
	<path fill-rule="evenodd" clip-rule="evenodd" fill="#EE2A27" d="M3.811,25.56c0,2.002,0,3.705,0,5.442
		C2.547,29.865,2.492,27.646,3.811,25.56z"/>
</g>
<g id="Layer_2" display="none">
	<path display="inline" fill-rule="evenodd" clip-rule="evenodd" fill="#EE2A27" d="M42.364,25.018
		c-0.009,9.66-7.881,17.361-17.394,17.334c-9.502-0.027-17.295-7.757-17.293-17.354c0.004-9.507,7.71-17.344,17.367-17.333
		C34.645,7.677,42.37,15.468,42.364,25.018z M22.404,16.827c-0.72,0.029-1.504,0.052-2.289,0.097
		c-0.553,0.031-1.107,0.076-1.657,0.146c-0.688,0.089-1.375,0.199-2.058,0.322c-0.746,0.133-1.484,0.31-2.207,0.537
		c-0.663,0.209-1.043,0.689-1.141,1.364c-0.096,0.659,0.264,1.339,0.904,1.644c0.408,0.195,0.824,0.197,1.252,0.07
		c1.231-0.367,2.49-0.595,3.766-0.742c0.815-0.094,1.635-0.146,2.457-0.175c1.351-0.047,2.698,0.001,4.044,0.12
		c0.755,0.067,1.506,0.166,2.254,0.288c1.119,0.183,2.224,0.425,3.311,0.743c1.245,0.365,2.455,0.82,3.602,1.434
		c0.242,0.129,0.479,0.27,0.722,0.4c0.299,0.16,0.618,0.222,0.955,0.167c0.665-0.108,1.132-0.47,1.333-1.117
		c0.205-0.662,0.027-1.239-0.485-1.704c-0.116-0.104-0.254-0.188-0.39-0.268c-1.596-0.921-3.297-1.586-5.064-2.09
		c-2.314-0.657-4.678-1.018-7.076-1.157C23.915,16.865,23.192,16.854,22.404,16.827z M22.1,22.805
		c-1.298,0.002-2.588,0.094-3.871,0.293c-0.996,0.154-1.977,0.367-2.943,0.652c-0.17,0.051-0.33,0.119-0.479,0.219
		c-0.486,0.325-0.699,0.911-0.545,1.471c0.186,0.67,0.898,1.159,1.692,0.935c0.144-0.04,0.284-0.091,0.427-0.129
		c0.906-0.246,1.826-0.425,2.758-0.546c0.82-0.106,1.644-0.17,2.471-0.183c0.686-0.011,1.373-0.01,2.057,0.05
		c0.584,0.051,1.17,0.1,1.75,0.176c1.017,0.133,2.019,0.341,3.007,0.615c1.655,0.46,3.236,1.095,4.716,1.975
		c0.069,0.042,0.141,0.081,0.214,0.117c0.252,0.129,0.516,0.174,0.8,0.133c0.744-0.108,1.268-0.85,1.115-1.586
		c-0.079-0.381-0.267-0.686-0.601-0.894c-0.069-0.043-0.137-0.088-0.206-0.13c-0.651-0.39-1.324-0.738-2.018-1.047
		c-2.508-1.119-5.142-1.751-7.869-2.007C23.751,22.842,22.926,22.803,22.1,22.805z M22.326,28.451
		c-0.527,0.021-1.056,0.03-1.582,0.068c-0.625,0.044-1.25,0.099-1.873,0.174c-1.021,0.123-2.031,0.314-3.035,0.534
		c-0.604,0.133-0.979,0.677-0.895,1.231c0.086,0.559,0.606,0.986,1.166,0.915c0.232-0.029,0.459-0.094,0.688-0.143
		c1.427-0.307,2.868-0.506,4.325-0.589c0.935-0.054,1.869-0.046,2.801,0.027c0.982,0.078,1.953,0.225,2.911,0.454
		c1.599,0.383,3.114,0.973,4.522,1.825c0.085,0.052,0.173,0.1,0.262,0.142c0.226,0.104,0.461,0.126,0.7,0.062
		c0.682-0.179,0.955-0.886,0.746-1.423c-0.1-0.255-0.27-0.448-0.504-0.582c-0.403-0.229-0.805-0.466-1.219-0.676
		c-2.178-1.1-4.496-1.698-6.918-1.92C23.727,28.489,23.027,28.457,22.326,28.451z"/>
</g>
<g id="Layer_3" display="none">
	<path display="inline" fill-rule="evenodd" clip-rule="evenodd" fill="#EE2A27" d="M8.068,25.849c0-3.458-0.016-6.917,0.005-10.375
		c0.017-2.921,1.384-5.008,4.018-6.256c0.81-0.384,1.687-0.546,2.58-0.547c7.045-0.007,14.091-0.026,21.136,0.005
		c3.451,0.015,6.196,2.545,6.596,5.97c0.03,0.254,0.021,0.514,0.021,0.771c0.001,6.956,0.004,13.911,0,20.866
		c-0.002,3.356-2.193,6.017-5.487,6.658c-0.388,0.076-0.791,0.105-1.188,0.105c-6.994,0.007-13.988,0.008-20.981,0.003
		c-3.383-0.002-6.176-2.434-6.647-5.785c-0.054-0.38-0.05-0.77-0.05-1.155C8.066,32.688,8.068,29.27,8.068,25.849z M16.507,22.37
		c-1.714,0-3.39,0-5.072,0c-0.007,0.104-0.018,0.181-0.018,0.257c-0.001,4.565-0.01,9.129,0.004,13.694
		c0.006,1.961,1.442,3.353,3.41,3.354c6.931,0.001,13.861,0.001,20.791,0c2.035,0,3.433-1.351,3.44-3.389
		c0.018-4.525,0.004-9.052,0.012-13.578c0.001-0.286-0.079-0.376-0.369-0.374c-1.466,0.013-2.932,0.005-4.397,0.008
		c-0.096,0-0.192,0.022-0.324,0.038c0.808,2.147,0.897,4.288,0.181,6.438c-0.719,2.153-2.068,3.818-3.979,5.036
		c-3.204,2.041-7.534,1.833-10.6-0.496C16.586,31.081,14.832,26.868,16.507,22.37z M31.292,25.865
		c-0.036-3.403-2.756-6.072-6.147-6.034c-3.301,0.036-5.977,2.794-5.942,6.124c0.034,3.303,2.785,5.966,6.128,5.934
		C28.612,31.857,31.326,29.114,31.292,25.865z M38.407,18.442c0-1.945,0-3.851,0-5.763c-1.934,0-3.841,0-5.747,0
		c0,1.931,0,3.837,0,5.763C34.59,18.442,36.484,18.442,38.407,18.442z"/>
</g>
<g id="Layer_4" display="none">
	<path display="inline" fill-rule="evenodd" clip-rule="evenodd" fill="#EE2A27" d="M25.247,8.66c5.143,0,10.285-0.005,15.429,0.006
		c0.716,0.001,1.249,0.38,1.606,0.996c0.182,0.312,0.24,0.65,0.24,1.013c-0.005,9.923-0.004,19.846-0.004,29.77
		c0,0.281,0.004,0.562,0.007,0.844c0.009,0.828-0.571,1.586-1.352,1.837c-0.183,0.059-0.383,0.088-0.574,0.088
		c-2.879,0.006-5.758,0.004-8.637,0.004c-0.185,0-0.203-0.018-0.206-0.203c-0.002-0.139-0.001-0.276-0.001-0.415
		c0-4.142,0-8.283,0.001-12.426c0-0.416-0.04-0.396,0.394-0.396c1.296-0.001,2.593-0.001,3.889-0.001
		c0.212,0,0.211-0.009,0.233-0.227c0.035-0.336,0.085-0.67,0.128-1.005c0.039-0.307,0.076-0.613,0.117-0.919
		c0.071-0.537,0.148-1.074,0.218-1.611c0.041-0.32,0.069-0.642,0.106-0.963c0.01-0.085,0.03-0.168,0.05-0.252
		c0.024-0.104-0.002-0.145-0.119-0.144c-0.463,0.006-0.925,0.002-1.387,0.002c-1.14,0-2.278,0-3.418,0
		c-0.191,0-0.211-0.018-0.211-0.213c-0.001-1.144-0.01-2.288,0.004-3.432c0.006-0.476,0.073-0.947,0.335-1.366
		c0.207-0.33,0.49-0.56,0.855-0.698c0.409-0.155,0.831-0.226,1.269-0.224c0.905,0.005,1.811,0,2.717,0.004
		c0.11,0,0.144-0.025,0.143-0.144c-0.006-1.392-0.004-2.783-0.005-4.175c0-0.028,0.001-0.057,0.001-0.085
		c-0.001-0.194-0.002-0.189-0.199-0.203c-0.54-0.039-1.08-0.088-1.621-0.124c-0.317-0.021-0.636-0.031-0.954-0.033
		c-0.619-0.004-1.24-0.024-1.857,0.012c-0.428,0.024-0.854,0.116-1.275,0.204c-0.285,0.06-0.569,0.144-0.839,0.254
		c-0.349,0.143-0.697,0.299-1.021,0.491c-0.762,0.452-1.367,1.07-1.83,1.827c-0.264,0.431-0.462,0.89-0.622,1.369
		c-0.195,0.581-0.288,1.18-0.36,1.782c-0.035,0.292-0.028,0.59-0.028,0.885c-0.002,1.215,0,2.431,0,3.646
		c0,0.21-0.014,0.224-0.23,0.224c-1.358,0-2.717,0.002-4.075-0.003c-0.147,0-0.185,0.045-0.184,0.187
		c0.004,1.583,0.002,3.165,0.003,4.747c0.001,0.186,0.003,0.188,0.196,0.188c1.334,0,2.668,0,4.003,0
		c0.052,0,0.104-0.001,0.157,0.004c0.082,0.008,0.132,0.049,0.13,0.139c0,0.028,0,0.057,0,0.085c0,4.3,0,8.599,0,12.897
		c0,0.058-0.001,0.114-0.001,0.172c0.002,0.094-0.043,0.142-0.138,0.143c-0.071,0-0.144,0.001-0.215,0.001
		c-5.424,0.001-10.848,0.004-16.271-0.004c-0.657-0.001-1.172-0.324-1.547-0.859c-0.242-0.345-0.333-0.733-0.333-1.156
		c0.003-10.2,0.004-20.4,0-30.6c0-0.87,0.622-1.678,1.451-1.872C9.564,8.69,9.722,8.663,9.876,8.663
		C15,8.66,20.123,8.66,25.247,8.66C25.247,8.66,25.247,8.66,25.247,8.66z"/>
</g>
<g id="Layer_5" display="none">
	<g display="inline">
		<path fill="#EE2A27" d="M41.262,15.507c0,0.009,0,0.018,0,0.027c-0.038,0.045-0.079,0.088-0.112,0.136
			c-0.808,1.161-1.774,2.167-2.909,3.011c-0.11,0.082-0.157,0.169-0.152,0.308c0.051,1.596-0.102,3.173-0.478,4.727
			c-0.861,3.564-2.568,6.653-5.208,9.215c-1.174,1.14-2.489,2.085-3.938,2.844c-2.571,1.346-5.323,1.959-8.211,2.013
			c-0.815,0.015-1.628-0.03-2.438-0.125c-2.688-0.315-5.177-1.197-7.475-2.625c-0.038-0.023-0.072-0.052-0.108-0.078
			c3.453,0.31,6.551-0.552,9.301-2.649c-0.224-0.047-0.446-0.056-0.663-0.091c-2.51-0.411-4.227-1.806-5.158-4.171
			c-0.072-0.182-0.055-0.199,0.137-0.168c0.814,0.133,1.623,0.099,2.426-0.084c0.054-0.012,0.107-0.03,0.161-0.044
			c-0.038-0.04-0.071-0.052-0.105-0.061c-1.708-0.419-3.037-1.371-3.972-2.859c-0.623-0.99-0.938-2.076-0.948-3.247
			c-0.002-0.163,0.019-0.172,0.16-0.1c0.729,0.374,1.501,0.603,2.317,0.684c0.11,0.011,0.222,0.014,0.333,0.021
			c0.005-0.009,0.011-0.019,0.017-0.028c-1.354-0.958-2.252-2.231-2.617-3.847c-0.365-1.618-0.135-3.158,0.691-4.634
			c0.056,0.059,0.089,0.093,0.122,0.128c0.36,0.398,0.707,0.81,1.083,1.191c0.827,0.838,1.73,1.586,2.707,2.246
			c1.837,1.242,3.833,2.122,5.991,2.633c1.017,0.241,2.047,0.388,3.089,0.457c0.147,0.009,0.166-0.011,0.136-0.165
			c-0.141-0.707-0.164-1.417-0.072-2.132c0.34-2.661,2.394-4.871,5.024-5.398c0.289-0.058,0.583-0.091,0.875-0.136
			c0.282,0,0.564,0,0.846,0c0.101,0.013,0.198,0.027,0.297,0.039c1.489,0.181,2.77,0.795,3.826,1.86
			c0.089,0.089,0.172,0.108,0.292,0.083c1.295-0.275,2.519-0.744,3.672-1.395c0.048-0.027,0.101-0.049,0.15-0.073
			c0.011,0.012,0.021,0.023,0.03,0.035c-0.494,1.443-1.399,2.571-2.698,3.407c0.039,0.016,0.047,0.022,0.056,0.022
			c0.03-0.002,0.063-0.006,0.094-0.01c0.878-0.121,1.734-0.327,2.566-0.629C40.688,15.735,40.974,15.619,41.262,15.507z"/>
		<path fill-rule="evenodd" clip-rule="evenodd" fill="#FFFFFF" d="M41.262,15.507c-0.288,0.112-0.574,0.229-0.865,0.334
			c-0.832,0.303-1.688,0.508-2.566,0.629c-0.03,0.004-0.063,0.008-0.094,0.01c-0.009,0-0.017-0.006-0.056-0.022
			c1.299-0.835,2.204-1.963,2.698-3.407c-0.01-0.012-0.02-0.023-0.03-0.035c-0.05,0.024-0.103,0.045-0.15,0.073
			c-1.153,0.651-2.377,1.12-3.672,1.395c-0.12,0.025-0.203,0.006-0.292-0.083c-1.057-1.065-2.337-1.68-3.826-1.86
			c-0.099-0.012-0.196-0.025-0.297-0.039c3.051,0,6.101,0,9.15,0C41.262,13.504,41.262,14.505,41.262,15.507z"/>
	</g>
</g>
</svg>
