<?xml version="1.0" encoding="utf-8"?>
<!-- Generator: Adobe Illustrator 16.0.0, SVG Export Plug-In . SVG Version: 6.00 Build 0)  -->
<!DOCTYPE svg PUBLIC "-//W3C//DTD SVG 1.1//EN" "http://www.w3.org/Graphics/SVG/1.1/DTD/svg11.dtd">
<svg version="1.1" id="Capa_1" xmlns="http://www.w3.org/2000/svg" xmlns:xlink="http://www.w3.org/1999/xlink" x="0px" y="0px"
	 width="50px" height="50px" viewBox="0 0 50 50" enable-background="new 0 0 50 50" xml:space="preserve">
<g>
	<path id="YouTube" fill="#FFFFFF" d="M36.999,33.499h-2.063l0.01-1.199c0-0.532,0.438-0.968,0.972-0.968h0.131
		c0.535,0,0.974,0.436,0.974,0.968L36.999,33.499z M29.26,30.93c-0.523,0-0.952,0.352-0.952,0.783v5.828
		c0,0.43,0.429,0.781,0.952,0.781c0.525,0,0.955-0.351,0.955-0.781v-5.828C30.215,31.282,29.786,30.93,29.26,30.93z M41.828,27.67
		v11.088c0,2.659-2.307,4.836-5.125,4.836H15.626c-2.82,0-5.126-2.177-5.126-4.836V27.67c0-2.659,2.306-4.836,5.126-4.836h21.077
		C39.521,22.834,41.828,25.011,41.828,27.67z M17.032,39.962l-0.002-11.68l2.613,0.001v-1.73l-6.965-0.011v1.701l2.174,0.006v11.712
		H17.032z M24.864,30.022h-2.179v6.236c0,0.903,0.055,1.354-0.003,1.513c-0.177,0.483-0.973,0.998-1.284,0.052
		c-0.053-0.165-0.006-0.664-0.007-1.521l-0.009-6.28h-2.166l0.007,6.181c0.001,0.948-0.021,1.653,0.007,1.976
		c0.053,0.566,0.034,1.228,0.561,1.605c0.979,0.706,2.858-0.105,3.328-1.114l-0.004,1.288l1.75,0.002L24.864,30.022L24.864,30.022z
		 M31.833,37.164l-0.005-5.191c-0.001-1.979-1.481-3.163-3.49-1.562l0.009-3.859l-2.176,0.003l-0.01,13.321l1.789-0.026l0.163-0.83
		C30.398,41.118,31.835,39.68,31.833,37.164z M38.649,36.476l-1.633,0.009c0,0.064-0.003,0.139-0.004,0.221v0.911
		c0,0.488-0.402,0.885-0.892,0.885H35.8c-0.49,0-0.894-0.397-0.894-0.885v-0.101v-1.003V35.22h3.74v-1.408
		c0-1.029-0.026-2.058-0.111-2.646c-0.268-1.86-2.879-2.156-4.198-1.204c-0.414,0.297-0.73,0.696-0.914,1.23
		c-0.186,0.535-0.278,1.266-0.278,2.194v3.096C33.145,41.629,39.395,40.901,38.649,36.476z M30.271,19.672
		c0.112,0.273,0.287,0.495,0.524,0.662c0.234,0.165,0.534,0.248,0.892,0.248c0.314,0,0.592-0.085,0.834-0.26
		c0.242-0.174,0.445-0.435,0.611-0.782l-0.041,0.854h2.428V10.069h-1.912v8.036c0,0.436-0.358,0.792-0.796,0.792
		c-0.436,0-0.795-0.356-0.795-0.792v-8.036h-1.995v6.964c0,0.887,0.016,1.479,0.043,1.779C30.091,19.11,30.159,19.396,30.271,19.672
		z M22.913,13.841c0-0.992,0.083-1.766,0.247-2.324c0.166-0.556,0.462-1.003,0.893-1.34c0.429-0.339,0.979-0.508,1.646-0.508
		c0.562,0,1.043,0.11,1.445,0.326c0.404,0.217,0.715,0.499,0.931,0.847c0.22,0.349,0.369,0.708,0.449,1.075
		c0.082,0.372,0.122,0.934,0.122,1.691v2.611c0,0.958-0.039,1.663-0.113,2.11c-0.074,0.448-0.233,0.865-0.479,1.255
		c-0.243,0.386-0.555,0.674-0.934,0.859c-0.384,0.186-0.822,0.277-1.318,0.277c-0.553,0-1.02-0.077-1.404-0.236
		c-0.386-0.159-0.683-0.398-0.896-0.716c-0.214-0.318-0.365-0.706-0.456-1.158c-0.092-0.452-0.135-1.131-0.135-2.036L22.913,13.841
		L22.913,13.841z M24.815,17.942c0,0.585,0.435,1.062,0.965,1.062s0.964-0.477,0.964-1.062v-5.497c0-0.584-0.434-1.062-0.964-1.062
		s-0.965,0.478-0.965,1.062V17.942z M18.095,20.718h2.291l0.002-7.919l2.707-6.784h-2.505l-1.439,5.039L17.691,6h-2.48l2.88,6.802
		L18.095,20.718z"/>
</g>
</svg>
