<?xml version="1.0" encoding="utf-8"?>
<!-- Generator: Adobe Illustrator 16.0.0, SVG Export Plug-In . SVG Version: 6.00 Build 0)  -->
<!DOCTYPE svg PUBLIC "-//W3C//DTD SVG 1.1//EN" "http://www.w3.org/Graphics/SVG/1.1/DTD/svg11.dtd">
<svg version="1.1" id="Capa_1" xmlns="http://www.w3.org/2000/svg" xmlns:xlink="http://www.w3.org/1999/xlink" x="0px" y="0px"
	 width="959.758px" height="959.76px" viewBox="0 0 959.758 959.76" enable-background="new 0 0 959.758 959.76"
	 xml:space="preserve">
<g>
	<path fill="#FFFFFF" d="M243.115,947.347l303.082-304.463c12.433-12.431,3.553-33.643-14.009-33.643h-24.171
		c-16.476,0-25.752-19.042-15.489-31.967l160.715-202.646c10.261-12.924,1.086-31.966-15.488-31.966h-80.803
		c-16.279,0-25.555-18.547-15.786-31.571L746.476,38.004c9.767-13.023,0.493-31.571-15.786-31.571H406.002
		c-7.499,0-14.405,4.242-17.661,10.951L229.6,338.521c-6.512,13.122,3.058,28.512,17.659,28.512h73.205
		c14.602,0,24.172,15.391,17.661,28.513L229.6,615.162c-6.512,13.122,3.058,28.512,17.659,28.512h68.963
		c14.602,0,24.073,15.193,17.759,28.313L211.445,924.854C201.678,944.88,227.429,963.133,243.115,947.347z"/>
</g>
</svg>
