<?xml version="1.0" encoding="utf-8"?>
<!-- Generator: Adobe Illustrator 16.0.0, SVG Export Plug-In . SVG Version: 6.00 Build 0)  -->
<!DOCTYPE svg PUBLIC "-//W3C//DTD SVG 1.1//EN" "http://www.w3.org/Graphics/SVG/1.1/DTD/svg11.dtd">
<svg version="1.1" id="Capa_1" xmlns="http://www.w3.org/2000/svg" xmlns:xlink="http://www.w3.org/1999/xlink" x="0px" y="0px"
	 width="125.547px" height="125.547px" viewBox="0 0 125.547 125.547" enable-background="new 0 0 125.547 125.547"
	 xml:space="preserve">
<g>
	<path fill="#FFFFFF" d="M109.719,0H15.832C7.089,0,0,7.089,0,15.83v93.886c0,8.743,7.089,15.832,15.832,15.832h93.889
		c8.738,0,15.827-7.089,15.827-15.832V15.83C125.55,7.089,118.46,0,109.719,0z M62.775,44.38c10.144,0,18.395,8.253,18.395,18.395
		c0,10.144-8.251,18.395-18.395,18.395c-10.142,0-18.395-8.251-18.395-18.395C44.38,52.633,52.633,44.38,62.775,44.38z
		 M110.951,103.027c0,4.369-4.066,7.925-8.439,7.925H23.347c-4.375,0-8.748-3.556-8.748-7.925V63.443
		c0-4.37,4.373-7.967,8.748-7.967h4.412c0.833,0,1.624,0.359,2.175,0.983c0.549,0.626,0.807,1.46,0.698,2.285
		c-0.172,1.32-0.266,2.666-0.266,4.032c0,17.871,14.539,32.41,32.41,32.41c17.871,0,32.41-14.539,32.41-32.41
		c0-1.366-0.095-2.712-0.266-4.032c-0.109-0.827,0.146-1.658,0.693-2.287c0.553-0.626,1.344-0.983,2.181-0.983h4.724
		c4.369,0,8.438,3.598,8.438,7.971v39.582H110.951L110.951,103.027z M110.954,30.038L110.954,30.038
		c-0.003,4.373-3.547,7.919-7.918,7.919h-7.522c-4.375,0-7.923-3.546-7.923-7.919v-7.523c0-4.37,3.548-7.916,7.923-7.916h7.522
		c4.371,0,7.918,3.546,7.918,7.916V30.038z"/>
</g>
</svg>
